<?xml version="1.0" standalone="no"?>
<!DOCTYPE svg PUBLIC "-//W3C//DTD SVG 20010904//EN"
 "http://www.w3.org/TR/2001/REC-SVG-20010904/DTD/svg10.dtd">
<svg version="1.0" xmlns="http://www.w3.org/2000/svg"
 width="256.000000pt" height="256.000000pt" viewBox="0 0 256.000000 256.000000"
 preserveAspectRatio="xMidYMid meet">

<g transform="translate(0.000000,256.000000) scale(0.100000,-0.100000)"
fill="#000000" stroke="none">
<path d="M1375 2446 c-37 -17 -80 -62 -94 -98 -6 -16 -18 -28 -26 -28 -25 0
-154 -81 -186 -117 -16 -19 -29 -42 -29 -52 0 -11 -16 -38 -35 -61 -19 -23
-38 -53 -41 -66 -6 -22 -12 -24 -60 -24 -45 0 -56 -4 -67 -22 -9 -15 -45 -296
-103 -805 l-88 -783 -98 0 c-128 0 -138 -8 -138 -115 l0 -75 -138 0 c-122 0
-141 -2 -155 -18 -20 -22 -22 -53 -5 -70 17 -17 2319 -17 2336 0 18 18 15 53
-6 71 -15 14 -42 17 -155 17 l-137 0 0 75 c0 107 -10 115 -138 115 l-98 0 -88
783 c-58 511 -93 790 -103 805 -11 18 -22 22 -63 22 l-51 0 16 30 c8 16 15 37
15 47 0 10 21 36 46 57 55 46 74 87 74 156 0 56 -18 100 -58 143 -64 67 -127
-3 -67 -75 34 -40 35 -105 2 -136 -13 -12 -30 -22 -38 -22 -30 0 -52 -26 -51
-61 1 -19 -10 -57 -25 -86 l-26 -53 -221 0 -220 0 37 38 c24 24 37 47 37 64 0
26 48 78 72 78 5 0 23 11 40 25 19 16 42 25 63 25 37 0 65 28 65 65 0 31 41
65 77 65 19 0 44 -10 63 -27 26 -22 36 -25 58 -17 19 7 28 18 30 38 9 74 -132
132 -223 92z m269 -568 c7 -31 26 -197 26 -225 l0 -23 -390 0 -390 0 0 23 c0
28 19 194 26 225 l4 22 360 0 360 0 4 -22z m-599 -453 l0 -110 -99 -3 -99 -3
6 38 c3 21 9 67 12 103 10 96 4 91 97 88 l83 -3 0 -110z m365 -1 l0 -114 -130
0 -130 0 0 114 0 114 130 -1 130 0 0 -113z m287 11 c6 -55 12 -106 12 -112 1
-10 -25 -13 -99 -13 l-100 0 0 108 c0 60 2 111 4 113 3 2 42 4 88 4 l83 0 12
-100z m-467 -335 l0 -110 -211 0 c-196 0 -210 1 -205 18 2 9 7 46 11 82 3 36
8 77 11 93 l6 27 194 0 194 0 0 -110z m493 88 c3 -13 8 -54 12 -93 4 -38 9
-78 11 -87 5 -17 -9 -18 -205 -18 l-211 0 0 110 0 110 194 0 c193 0 194 0 199
-22z m-673 -408 l0 -110 -135 0 c-156 0 -142 -15 -124 132 l12 88 123 0 124 0
0 -110z m360 0 l0 -110 -130 0 -130 0 0 110 0 110 130 0 130 0 0 -110z m359
22 c18 -147 32 -132 -124 -132 l-135 0 0 110 0 110 124 0 123 0 12 -88z m-539
-322 l0 -90 -243 0 -243 0 9 78 c5 42 10 83 12 90 3 9 59 12 235 12 l230 0 0
-90z m564 82 c2 -4 7 -44 11 -90 l8 -82 -242 0 -241 0 0 90 0 90 229 0 c127 0
232 -3 235 -8z m256 -317 l0 -45 -770 0 -770 0 0 45 0 45 770 0 770 0 0 -45z"/>
<path d="M1411 2244 c-13 -10 -21 -26 -21 -45 0 -38 -28 -61 -88 -75 -38 -8
-49 -15 -57 -38 -8 -24 -6 -31 14 -47 25 -21 66 -19 126 6 92 38 139 180 69
206 -14 5 -29 2 -43 -7z"/>
</g>
</svg>
