<?xml version="1.0" encoding="iso-8859-1"?>
<!-- Uploaded to: SVG Repo, www.svgrepo.com, Generator: SVG Repo Mixer Tools -->
<svg height="800px" width="800px" version="1.1" id="Layer_1" xmlns="http://www.w3.org/2000/svg" xmlns:xlink="http://www.w3.org/1999/xlink" 
	 viewBox="0 0 512 512" xml:space="preserve">
<g transform="translate(1 1)">
	<g>
		<polygon style="fill:#FDCC00;" points="16.067,139.8 101.4,139.8 101.4,105.667 16.067,105.667 		"/>
		<polygon style="fill:#FDCC00;" points="152.6,139.8 237.933,139.8 237.933,105.667 152.6,105.667 		"/>
		<polygon style="fill:#FDCC00;" points="33.133,310.467 84.333,310.467 84.333,139.8 33.133,139.8 		"/>
		<polygon style="fill:#FDCC00;" points="169.667,310.467 220.867,310.467 220.867,139.8 169.667,139.8 		"/>
		<polygon style="fill:#FDCC00;" points="297.667,139.8 485.4,139.8 485.4,105.667 297.667,105.667 		"/>
	</g>
	<g>
		<polygon style="fill:#FFE100;" points="323.267,498.2 459.8,498.2 459.8,139.8 323.267,139.8 		"/>
		<polygon style="fill:#FFE100;" points="7.533,498.2 323.267,498.2 323.267,310.467 7.533,310.467 		"/>
		<polygon style="fill:#FFE100;" points="459.8,498.2 502.467,498.2 502.467,310.467 459.8,310.467 		"/>
	</g>
	<g>
		<polygon style="fill:#FFFFFF;" points="16.067,139.8 33.133,139.8 33.133,105.667 16.067,105.667 		"/>
		<polygon style="fill:#FFFFFF;" points="33.133,310.467 50.2,310.467 50.2,139.8 33.133,139.8 		"/>
		<polygon style="fill:#FFFFFF;" points="7.533,498.2 24.6,498.2 24.6,310.467 7.533,310.467 		"/>
	</g>
	<polygon style="fill:#FFA800;" points="485.4,498.2 502.467,498.2 502.467,310.467 485.4,310.467 	"/>
	<g>
		<polygon style="fill:#63D3FD;" points="58.733,387.267 92.867,387.267 92.867,353.133 58.733,353.133 		"/>
		<polygon style="fill:#63D3FD;" points="144.067,387.267 178.2,387.267 178.2,353.133 144.067,353.133 		"/>
		<polygon style="fill:#63D3FD;" points="229.4,387.267 263.533,387.267 263.533,353.133 229.4,353.133 		"/>
		<polygon style="fill:#63D3FD;" points="374.467,208.067 408.6,208.067 408.6,173.933 374.467,173.933 		"/>
		<polygon style="fill:#63D3FD;" points="374.467,319 408.6,319 408.6,284.867 374.467,284.867 		"/>
		<polygon style="fill:#63D3FD;" points="374.467,429.933 408.6,429.933 408.6,395.8 374.467,395.8 		"/>
	</g>
	<path d="M101.4,148.333H16.067c-5.12,0-8.533-3.413-8.533-8.533v-34.133c0-5.12,3.413-8.533,8.533-8.533H101.4
		c5.12,0,8.533,3.413,8.533,8.533V139.8C109.933,144.92,106.52,148.333,101.4,148.333z M24.6,131.267h68.267V114.2H24.6V131.267z"/>
	<path d="M237.933,148.333H152.6c-5.12,0-8.533-3.413-8.533-8.533v-34.133c0-5.12,3.413-8.533,8.533-8.533h85.333
		c5.12,0,8.533,3.413,8.533,8.533V139.8C246.467,144.92,243.053,148.333,237.933,148.333z M161.133,131.267H229.4V114.2h-68.267
		V131.267z"/>
	<path d="M84.333,319h-51.2c-5.12,0-8.533-3.413-8.533-8.533V139.8c0-5.12,3.413-8.533,8.533-8.533h51.2
		c5.12,0,8.533,3.413,8.533,8.533v170.667C92.867,315.587,89.453,319,84.333,319z M41.667,301.933H75.8v-153.6H41.667V301.933z"/>
	<path d="M92.867,395.8H58.733c-5.12,0-8.533-3.413-8.533-8.533v-34.133c0-5.12,3.413-8.533,8.533-8.533h34.133
		c5.12,0,8.533,3.413,8.533,8.533v34.133C101.4,392.387,97.987,395.8,92.867,395.8z M67.267,378.733h17.067v-17.067H67.267V378.733z
		"/>
	<path d="M92.867,429.933H58.733c-5.12,0-8.533-3.413-8.533-8.533s3.413-8.533,8.533-8.533h34.133c5.12,0,8.533,3.413,8.533,8.533
		S97.987,429.933,92.867,429.933z"/>
	<path d="M92.867,464.067H58.733c-5.12,0-8.533-3.413-8.533-8.533S53.613,447,58.733,447h34.133c5.12,0,8.533,3.413,8.533,8.533
		S97.987,464.067,92.867,464.067z"/>
	<path d="M178.2,395.8h-34.133c-5.12,0-8.533-3.413-8.533-8.533v-34.133c0-5.12,3.413-8.533,8.533-8.533H178.2
		c5.12,0,8.533,3.413,8.533,8.533v34.133C186.733,392.387,183.32,395.8,178.2,395.8z M152.6,378.733h17.067v-17.067H152.6V378.733z"
		/>
	<path d="M178.2,429.933h-34.133c-5.12,0-8.533-3.413-8.533-8.533s3.413-8.533,8.533-8.533H178.2c5.12,0,8.533,3.413,8.533,8.533
		S183.32,429.933,178.2,429.933z"/>
	<path d="M178.2,464.067h-34.133c-5.12,0-8.533-3.413-8.533-8.533s3.413-8.533,8.533-8.533H178.2c5.12,0,8.533,3.413,8.533,8.533
		S183.32,464.067,178.2,464.067z"/>
	<path d="M263.533,395.8H229.4c-5.12,0-8.533-3.413-8.533-8.533v-34.133c0-5.12,3.413-8.533,8.533-8.533h34.133
		c5.12,0,8.533,3.413,8.533,8.533v34.133C272.067,392.387,268.653,395.8,263.533,395.8z M237.933,378.733H255v-17.067h-17.067
		V378.733z"/>
	<path d="M263.533,429.933H229.4c-5.12,0-8.533-3.413-8.533-8.533s3.413-8.533,8.533-8.533h34.133c5.12,0,8.533,3.413,8.533,8.533
		S268.653,429.933,263.533,429.933z"/>
	<path d="M263.533,464.067H229.4c-5.12,0-8.533-3.413-8.533-8.533S224.28,447,229.4,447h34.133c5.12,0,8.533,3.413,8.533,8.533
		S268.653,464.067,263.533,464.067z"/>
	<path d="M58.733,80.067c-5.12,0-8.533-3.413-8.533-8.533C50.2,52.76,65.56,37.4,84.333,37.4h34.133c5.12,0,8.533-3.413,8.533-8.533
		s-3.413-8.533-8.533-8.533H84.333c-5.12,0-8.533-3.413-8.533-8.533s3.413-8.533,8.533-8.533h34.133c14.507,0,25.6,11.093,25.6,25.6
		s-11.093,25.6-25.6,25.6H84.333c-9.387,0-17.067,7.68-17.067,17.067C67.267,76.653,63.853,80.067,58.733,80.067z"/>
	<path d="M220.867,319h-51.2c-5.12,0-8.533-3.413-8.533-8.533V139.8c0-5.12,3.413-8.533,8.533-8.533h51.2
		c5.12,0,8.533,3.413,8.533,8.533v170.667C229.4,315.587,225.987,319,220.867,319z M178.2,301.933h34.133v-153.6H178.2V301.933z"/>
	<path d="M195.267,80.067c-5.12,0-8.533-3.413-8.533-8.533c0-18.773,15.36-34.133,34.133-34.133h25.6
		c5.12,0,8.533-3.413,8.533-8.533s-3.413-8.533-8.533-8.533h-25.6c-5.12,0-8.533-3.413-8.533-8.533s3.413-8.533,8.533-8.533h25.6
		c14.507,0,25.6,11.093,25.6,25.6s-11.093,25.6-25.6,25.6h-25.6c-9.387,0-17.067,7.68-17.067,17.067
		C203.8,76.653,200.387,80.067,195.267,80.067z"/>
	<path d="M408.6,216.6h-34.133c-5.12,0-8.533-3.413-8.533-8.533v-34.133c0-5.12,3.413-8.533,8.533-8.533H408.6
		c5.12,0,8.533,3.413,8.533,8.533v34.133C417.133,213.187,413.72,216.6,408.6,216.6z M383,199.533h17.067v-17.067H383V199.533z"/>
	<path d="M408.6,250.733h-34.133c-5.12,0-8.533-3.413-8.533-8.533s3.413-8.533,8.533-8.533H408.6c5.12,0,8.533,3.413,8.533,8.533
		S413.72,250.733,408.6,250.733z"/>
	<path d="M408.6,327.533h-34.133c-5.12,0-8.533-3.413-8.533-8.533v-34.133c0-5.12,3.413-8.533,8.533-8.533H408.6
		c5.12,0,8.533,3.413,8.533,8.533V319C417.133,324.12,413.72,327.533,408.6,327.533z M383,310.467h17.067V293.4H383V310.467z"/>
	<path d="M408.6,361.667h-34.133c-5.12,0-8.533-3.413-8.533-8.533c0-5.12,3.413-8.533,8.533-8.533H408.6
		c5.12,0,8.533,3.413,8.533,8.533C417.133,358.253,413.72,361.667,408.6,361.667z"/>
	<path d="M408.6,438.467h-34.133c-5.12,0-8.533-3.413-8.533-8.533V395.8c0-5.12,3.413-8.533,8.533-8.533H408.6
		c5.12,0,8.533,3.413,8.533,8.533v34.133C417.133,435.053,413.72,438.467,408.6,438.467z M383,421.4h17.067v-17.067H383V421.4z"/>
	<path d="M408.6,472.6h-34.133c-5.12,0-8.533-3.413-8.533-8.533c0-5.12,3.413-8.533,8.533-8.533H408.6
		c5.12,0,8.533,3.413,8.533,8.533C417.133,469.187,413.72,472.6,408.6,472.6z"/>
	<path d="M459.8,506.733H323.267c-5.12,0-8.533-3.413-8.533-8.533V139.8c0-5.12,3.413-8.533,8.533-8.533H459.8
		c5.12,0,8.533,3.413,8.533,8.533v358.4C468.333,503.32,464.92,506.733,459.8,506.733z M331.8,489.667h119.467V148.333H331.8
		V489.667z"/>
	<path d="M485.4,148.333H297.667c-5.12,0-8.533-3.413-8.533-8.533v-34.133c0-5.12,3.413-8.533,8.533-8.533H485.4
		c5.12,0,8.533,3.413,8.533,8.533V139.8C493.933,144.92,490.52,148.333,485.4,148.333z M306.2,131.267h170.667V114.2H306.2V131.267z
		"/>
	<path d="M323.267,506.733H7.533C2.413,506.733-1,503.32-1,498.2V310.467c0-5.12,3.413-8.533,8.533-8.533h315.733
		c5.12,0,8.533,3.413,8.533,8.533V498.2C331.8,503.32,328.387,506.733,323.267,506.733z M16.067,489.667h298.667V319H16.067V489.667
		z"/>
	<path d="M502.467,506.733H459.8c-5.12,0-8.533-3.413-8.533-8.533V310.467c0-5.12,3.413-8.533,8.533-8.533h42.667
		c5.12,0,8.533,3.413,8.533,8.533V498.2C511,503.32,507.587,506.733,502.467,506.733z M468.333,489.667h25.6V319h-25.6V489.667z"/>
</g>
</svg>