<svg width="286" height="33" viewBox="0 0 286 33" fill="none" xmlns="http://www.w3.org/2000/svg">
<rect x="1" y="18" width="285" height="15" fill="url(#paint0_linear_2546_620)"/>
<path d="M7.4707 6.58789V9.91016C7.3457 10.0703 7.14844 10.2441 6.87891 10.4316C6.61328 10.6191 6.26562 10.7812 5.83594 10.918C5.40625 11.0508 4.87891 11.1172 4.25391 11.1172C3.71094 11.1172 3.21484 11.0273 2.76562 10.8477C2.31641 10.6641 1.92969 10.3965 1.60547 10.0449C1.28125 9.69336 1.03125 9.26367 0.855469 8.75586C0.679688 8.24805 0.591797 7.66797 0.591797 7.01562V6.45312C0.591797 5.80078 0.673828 5.2207 0.837891 4.71289C1.00586 4.20508 1.24414 3.77539 1.55273 3.42383C1.86523 3.07227 2.23828 2.80469 2.67188 2.62109C3.10938 2.4375 3.59766 2.3457 4.13672 2.3457C4.85938 2.3457 5.45312 2.46484 5.91797 2.70312C6.38672 2.94141 6.74609 3.26953 6.99609 3.6875C7.24609 4.10156 7.40234 4.57812 7.46484 5.11719H5.89453C5.85156 4.82031 5.76562 4.56055 5.63672 4.33789C5.50781 4.11133 5.32422 3.93555 5.08594 3.81055C4.85156 3.68164 4.54688 3.61719 4.17188 3.61719C3.85547 3.61719 3.57617 3.67969 3.33398 3.80469C3.0918 3.92969 2.88867 4.11133 2.72461 4.34961C2.56055 4.58789 2.43555 4.88281 2.34961 5.23438C2.26758 5.58594 2.22656 5.98828 2.22656 6.44141V7.01562C2.22656 7.47266 2.27344 7.87891 2.36719 8.23438C2.46094 8.58594 2.5957 8.88281 2.77148 9.125C2.95117 9.36328 3.17188 9.54492 3.43359 9.66992C3.69922 9.79102 4 9.85156 4.33594 9.85156C4.64062 9.85156 4.89258 9.82617 5.0918 9.77539C5.29492 9.7207 5.45703 9.65625 5.57812 9.58203C5.69922 9.50781 5.79297 9.43555 5.85938 9.36523V7.76562H4.16602V6.58789H7.4707ZM8.60156 7.89453V7.77148C8.60156 7.30664 8.66797 6.87891 8.80078 6.48828C8.93359 6.09375 9.12695 5.75195 9.38086 5.46289C9.63477 5.17383 9.94531 4.94922 10.3125 4.78906C10.6797 4.625 11.0977 4.54297 11.5664 4.54297C12.043 4.54297 12.4648 4.625 12.832 4.78906C13.2031 4.94922 13.5156 5.17383 13.7695 5.46289C14.0234 5.75195 14.2168 6.09375 14.3496 6.48828C14.4824 6.87891 14.5488 7.30664 14.5488 7.77148V7.89453C14.5488 8.35547 14.4824 8.7832 14.3496 9.17773C14.2168 9.56836 14.0234 9.91016 13.7695 10.2031C13.5156 10.4922 13.2051 10.7168 12.8379 10.877C12.4707 11.0371 12.0508 11.1172 11.5781 11.1172C11.1094 11.1172 10.6895 11.0371 10.3184 10.877C9.94727 10.7168 9.63477 10.4922 9.38086 10.2031C9.12695 9.91016 8.93359 9.56836 8.80078 9.17773C8.66797 8.7832 8.60156 8.35547 8.60156 7.89453ZM10.1484 7.77148V7.89453C10.1484 8.17188 10.1758 8.43164 10.2305 8.67383C10.2852 8.91602 10.3691 9.12891 10.4824 9.3125C10.5957 9.49609 10.7422 9.64062 10.9219 9.74609C11.1055 9.84766 11.3242 9.89844 11.5781 9.89844C11.8281 9.89844 12.043 9.84766 12.2227 9.74609C12.4023 9.64062 12.5488 9.49609 12.6621 9.3125C12.7793 9.12891 12.8652 8.91602 12.9199 8.67383C12.9746 8.43164 13.002 8.17188 13.002 7.89453V7.77148C13.002 7.49805 12.9746 7.24219 12.9199 7.00391C12.8652 6.76172 12.7793 6.54883 12.6621 6.36523C12.5488 6.17773 12.4004 6.03125 12.2168 5.92578C12.0371 5.81641 11.8203 5.76172 11.5664 5.76172C11.3164 5.76172 11.1016 5.81641 10.9219 5.92578C10.7422 6.03125 10.5957 6.17773 10.4824 6.36523C10.3691 6.54883 10.2852 6.76172 10.2305 7.00391C10.1758 7.24219 10.1484 7.49805 10.1484 7.77148ZM15.3984 7.89453V7.77148C15.3984 7.30664 15.4648 6.87891 15.5977 6.48828C15.7305 6.09375 15.9238 5.75195 16.1777 5.46289C16.4316 5.17383 16.7422 4.94922 17.1094 4.78906C17.4766 4.625 17.8945 4.54297 18.3633 4.54297C18.8398 4.54297 19.2617 4.625 19.6289 4.78906C20 4.94922 20.3125 5.17383 20.5664 5.46289C20.8203 5.75195 21.0137 6.09375 21.1465 6.48828C21.2793 6.87891 21.3457 7.30664 21.3457 7.77148V7.89453C21.3457 8.35547 21.2793 8.7832 21.1465 9.17773C21.0137 9.56836 20.8203 9.91016 20.5664 10.2031C20.3125 10.4922 20.002 10.7168 19.6348 10.877C19.2676 11.0371 18.8477 11.1172 18.375 11.1172C17.9062 11.1172 17.4863 11.0371 17.1152 10.877C16.7441 10.7168 16.4316 10.4922 16.1777 10.2031C15.9238 9.91016 15.7305 9.56836 15.5977 9.17773C15.4648 8.7832 15.3984 8.35547 15.3984 7.89453ZM16.9453 7.77148V7.89453C16.9453 8.17188 16.9727 8.43164 17.0273 8.67383C17.082 8.91602 17.166 9.12891 17.2793 9.3125C17.3926 9.49609 17.5391 9.64062 17.7188 9.74609C17.9023 9.84766 18.1211 9.89844 18.375 9.89844C18.625 9.89844 18.8398 9.84766 19.0195 9.74609C19.1992 9.64062 19.3457 9.49609 19.459 9.3125C19.5762 9.12891 19.6621 8.91602 19.7168 8.67383C19.7715 8.43164 19.7988 8.17188 19.7988 7.89453V7.77148C19.7988 7.49805 19.7715 7.24219 19.7168 7.00391C19.6621 6.76172 19.5762 6.54883 19.459 6.36523C19.3457 6.17773 19.1973 6.03125 19.0137 5.92578C18.834 5.81641 18.6172 5.76172 18.3633 5.76172C18.1133 5.76172 17.8984 5.81641 17.7188 5.92578C17.5391 6.03125 17.3926 6.17773 17.2793 6.36523C17.166 6.54883 17.082 6.76172 17.0273 7.00391C16.9727 7.24219 16.9453 7.49805 16.9453 7.77148ZM26.2734 9.65234V2H27.832V11H26.4258L26.2734 9.65234ZM22.2012 7.90625V7.7832C22.2012 7.29883 22.2559 6.85938 22.3652 6.46484C22.4785 6.06641 22.6426 5.72461 22.8574 5.43945C23.0723 5.1543 23.332 4.93359 23.6367 4.77734C23.9453 4.62109 24.2949 4.54297 24.6855 4.54297C25.0645 4.54297 25.3945 4.61914 25.6758 4.77148C25.9609 4.92383 26.2031 5.14062 26.4023 5.42188C26.6055 5.70312 26.7676 6.03711 26.8887 6.42383C27.0098 6.80664 27.0977 7.22852 27.1523 7.68945V8.02344C27.0977 8.47266 27.0098 8.88477 26.8887 9.25977C26.7676 9.63477 26.6055 9.96289 26.4023 10.2441C26.2031 10.5215 25.9609 10.7363 25.6758 10.8887C25.3906 11.041 25.0566 11.1172 24.6738 11.1172C24.2871 11.1172 23.9395 11.0371 23.6309 10.877C23.3262 10.7168 23.0664 10.4922 22.8516 10.2031C22.6406 9.91406 22.4785 9.57422 22.3652 9.18359C22.2559 8.79297 22.2012 8.36719 22.2012 7.90625ZM23.7539 7.7832V7.90625C23.7539 8.17969 23.7773 8.43555 23.8242 8.67383C23.8711 8.91211 23.9473 9.12305 24.0527 9.30664C24.1582 9.48633 24.293 9.62695 24.457 9.72852C24.625 9.83008 24.8281 9.88086 25.0664 9.88086C25.3711 9.88086 25.6211 9.81445 25.8164 9.68164C26.0156 9.54492 26.1699 9.35938 26.2793 9.125C26.3887 8.88672 26.459 8.61914 26.4902 8.32227V7.40234C26.4746 7.16797 26.4336 6.95117 26.3672 6.75195C26.3047 6.55273 26.2148 6.38086 26.0977 6.23633C25.9844 6.0918 25.8438 5.97852 25.6758 5.89648C25.5078 5.81445 25.3086 5.77344 25.0781 5.77344C24.8398 5.77344 24.6367 5.82617 24.4688 5.93164C24.3008 6.0332 24.1641 6.17578 24.0586 6.35938C23.9531 6.54297 23.875 6.75586 23.8242 6.99805C23.7773 7.24023 23.7539 7.50195 23.7539 7.7832Z" fill="#27B844"/>
<path d="M127.207 3.76367L124.775 11H123.07L126.258 2.46875H127.348L127.207 3.76367ZM129.24 11L126.797 3.76367L126.65 2.46875H127.746L130.951 11H129.24ZM129.129 7.83008V9.10156H124.553V7.83008H129.129ZM133.523 9.82812L135 4.66016H136.617L134.443 11H133.459L133.523 9.82812ZM132.445 4.66016L133.939 9.83984L133.992 11H133.002L130.822 4.66016H132.445ZM140.197 11.1172C139.717 11.1172 139.285 11.0391 138.902 10.8828C138.52 10.7266 138.193 10.5098 137.924 10.2324C137.658 9.95117 137.453 9.625 137.309 9.25391C137.168 8.87891 137.098 8.47656 137.098 8.04688V7.8125C137.098 7.32422 137.168 6.88086 137.309 6.48242C137.449 6.08008 137.648 5.73438 137.906 5.44531C138.164 5.15625 138.473 4.93359 138.832 4.77734C139.191 4.62109 139.588 4.54297 140.021 4.54297C140.471 4.54297 140.867 4.61914 141.211 4.77148C141.555 4.91992 141.842 5.13086 142.072 5.4043C142.303 5.67773 142.477 6.00586 142.594 6.38867C142.711 6.76758 142.77 7.1875 142.77 7.64844V8.29883H137.801V7.23242H141.246V7.11523C141.238 6.86914 141.191 6.64453 141.105 6.44141C141.02 6.23438 140.887 6.07031 140.707 5.94922C140.527 5.82422 140.295 5.76172 140.01 5.76172C139.779 5.76172 139.578 5.8125 139.406 5.91406C139.238 6.01172 139.098 6.15234 138.984 6.33594C138.875 6.51562 138.793 6.73047 138.738 6.98047C138.684 7.23047 138.656 7.50781 138.656 7.8125V8.04688C138.656 8.3125 138.691 8.55859 138.762 8.78516C138.836 9.01172 138.943 9.20898 139.084 9.37695C139.229 9.54102 139.4 9.66992 139.6 9.76367C139.803 9.85352 140.033 9.89844 140.291 9.89844C140.615 9.89844 140.908 9.83594 141.17 9.71094C141.436 9.58203 141.666 9.39258 141.861 9.14258L142.641 9.95117C142.508 10.1465 142.328 10.334 142.102 10.5137C141.879 10.6934 141.609 10.8398 141.293 10.9531C140.977 11.0625 140.611 11.1172 140.197 11.1172ZM145.354 5.95508V11H143.807V4.66016H145.271L145.354 5.95508ZM147.281 4.61914L147.258 6.06055C147.172 6.04492 147.074 6.0332 146.965 6.02539C146.859 6.01758 146.76 6.01367 146.666 6.01367C146.428 6.01367 146.219 6.04688 146.039 6.11328C145.859 6.17578 145.709 6.26758 145.588 6.38867C145.471 6.50977 145.381 6.6582 145.318 6.83398C145.256 7.00586 145.221 7.20117 145.213 7.41992L144.879 7.37891C144.879 6.97656 144.92 6.60352 145.002 6.25977C145.084 5.91602 145.203 5.61523 145.359 5.35742C145.516 5.09961 145.711 4.90039 145.945 4.75977C146.184 4.61523 146.457 4.54297 146.766 4.54297C146.852 4.54297 146.943 4.55078 147.041 4.56641C147.143 4.57812 147.223 4.5957 147.281 4.61914ZM151.424 9.65234V6.72852C151.424 6.51367 151.387 6.32812 151.312 6.17188C151.238 6.01562 151.125 5.89453 150.973 5.80859C150.82 5.72266 150.627 5.67969 150.393 5.67969C150.186 5.67969 150.004 5.71484 149.848 5.78516C149.695 5.85547 149.578 5.95508 149.496 6.08398C149.414 6.20898 149.373 6.35352 149.373 6.51758H147.82C147.82 6.25586 147.883 6.00781 148.008 5.77344C148.133 5.53516 148.311 5.32422 148.541 5.14062C148.775 4.95312 149.055 4.80664 149.379 4.70117C149.707 4.5957 150.074 4.54297 150.48 4.54297C150.961 4.54297 151.389 4.625 151.764 4.78906C152.143 4.94922 152.439 5.19141 152.654 5.51562C152.873 5.83984 152.982 6.24805 152.982 6.74023V9.50586C152.982 9.82227 153.002 10.0938 153.041 10.3203C153.084 10.543 153.146 10.7363 153.229 10.9004V11H151.652C151.578 10.8398 151.521 10.6367 151.482 10.3906C151.443 10.1406 151.424 9.89453 151.424 9.65234ZM151.641 7.13867L151.652 8.05859H150.674C150.432 8.05859 150.219 8.08398 150.035 8.13477C149.852 8.18164 149.701 8.25195 149.584 8.3457C149.467 8.43555 149.379 8.54492 149.32 8.67383C149.262 8.79883 149.232 8.94141 149.232 9.10156C149.232 9.25781 149.268 9.39844 149.338 9.52344C149.412 9.64844 149.518 9.74805 149.654 9.82227C149.795 9.89258 149.959 9.92773 150.146 9.92773C150.42 9.92773 150.658 9.87305 150.861 9.76367C151.064 9.65039 151.223 9.51367 151.336 9.35352C151.449 9.19336 151.51 9.04102 151.518 8.89648L151.963 9.56445C151.908 9.72461 151.826 9.89453 151.717 10.0742C151.607 10.2539 151.467 10.4219 151.295 10.5781C151.123 10.7344 150.916 10.8633 150.674 10.9648C150.432 11.0664 150.15 11.1172 149.83 11.1172C149.42 11.1172 149.053 11.0352 148.729 10.8711C148.404 10.707 148.148 10.4824 147.961 10.1973C147.773 9.91211 147.68 9.58789 147.68 9.22461C147.68 8.88867 147.742 8.5918 147.867 8.33398C147.992 8.07617 148.178 7.85938 148.424 7.68359C148.67 7.50391 148.975 7.36914 149.338 7.2793C149.705 7.18555 150.125 7.13867 150.598 7.13867H151.641ZM158.408 4.66016H159.814V10.8066C159.814 11.3809 159.689 11.8672 159.439 12.2656C159.193 12.668 158.848 12.9727 158.402 13.1797C157.957 13.3906 157.439 13.4961 156.85 13.4961C156.596 13.4961 156.32 13.4609 156.023 13.3906C155.73 13.3203 155.447 13.209 155.174 13.0566C154.904 12.9082 154.68 12.7148 154.5 12.4766L155.197 11.5625C155.408 11.8086 155.646 11.9941 155.912 12.1191C156.178 12.248 156.465 12.3125 156.773 12.3125C157.086 12.3125 157.352 12.2539 157.57 12.1367C157.793 12.0234 157.963 11.8555 158.08 11.6328C158.201 11.4141 158.262 11.1445 158.262 10.8242V6.10742L158.408 4.66016ZM154.125 7.90625V7.7832C154.125 7.29883 154.184 6.85938 154.301 6.46484C154.418 6.06641 154.586 5.72461 154.805 5.43945C155.027 5.1543 155.295 4.93359 155.607 4.77734C155.924 4.62109 156.279 4.54297 156.674 4.54297C157.092 4.54297 157.443 4.61914 157.729 4.77148C158.018 4.92383 158.256 5.14062 158.443 5.42188C158.635 5.70312 158.783 6.03711 158.889 6.42383C158.998 6.80664 159.082 7.22852 159.141 7.68945V8.02344C159.086 8.47266 158.998 8.88477 158.877 9.25977C158.76 9.63477 158.604 9.96289 158.408 10.2441C158.213 10.5215 157.971 10.7363 157.682 10.8887C157.393 11.041 157.053 11.1172 156.662 11.1172C156.271 11.1172 155.92 11.0371 155.607 10.877C155.295 10.7168 155.027 10.4922 154.805 10.2031C154.586 9.91406 154.418 9.57422 154.301 9.18359C154.184 8.79297 154.125 8.36719 154.125 7.90625ZM155.672 7.7832V7.90625C155.672 8.17969 155.699 8.43555 155.754 8.67383C155.809 8.91211 155.893 9.12305 156.006 9.30664C156.119 9.48633 156.262 9.62695 156.434 9.72852C156.605 9.83008 156.811 9.88086 157.049 9.88086C157.369 9.88086 157.631 9.81445 157.834 9.68164C158.041 9.54492 158.197 9.35938 158.303 9.125C158.412 8.88672 158.482 8.61914 158.514 8.32227V7.40234C158.494 7.16797 158.451 6.95117 158.385 6.75195C158.322 6.55273 158.234 6.38086 158.121 6.23633C158.008 6.0918 157.863 5.97852 157.688 5.89648C157.512 5.81445 157.303 5.77344 157.061 5.77344C156.826 5.77344 156.621 5.82617 156.445 5.93164C156.27 6.0332 156.125 6.17578 156.012 6.35938C155.898 6.54297 155.812 6.75586 155.754 6.99805C155.699 7.24023 155.672 7.50195 155.672 7.7832ZM164.057 11.1172C163.576 11.1172 163.145 11.0391 162.762 10.8828C162.379 10.7266 162.053 10.5098 161.783 10.2324C161.518 9.95117 161.312 9.625 161.168 9.25391C161.027 8.87891 160.957 8.47656 160.957 8.04688V7.8125C160.957 7.32422 161.027 6.88086 161.168 6.48242C161.309 6.08008 161.508 5.73438 161.766 5.44531C162.023 5.15625 162.332 4.93359 162.691 4.77734C163.051 4.62109 163.447 4.54297 163.881 4.54297C164.33 4.54297 164.727 4.61914 165.07 4.77148C165.414 4.91992 165.701 5.13086 165.932 5.4043C166.162 5.67773 166.336 6.00586 166.453 6.38867C166.57 6.76758 166.629 7.1875 166.629 7.64844V8.29883H161.66V7.23242H165.105V7.11523C165.098 6.86914 165.051 6.64453 164.965 6.44141C164.879 6.23438 164.746 6.07031 164.566 5.94922C164.387 5.82422 164.154 5.76172 163.869 5.76172C163.639 5.76172 163.438 5.8125 163.266 5.91406C163.098 6.01172 162.957 6.15234 162.844 6.33594C162.734 6.51562 162.652 6.73047 162.598 6.98047C162.543 7.23047 162.516 7.50781 162.516 7.8125V8.04688C162.516 8.3125 162.551 8.55859 162.621 8.78516C162.695 9.01172 162.803 9.20898 162.943 9.37695C163.088 9.54102 163.26 9.66992 163.459 9.76367C163.662 9.85352 163.893 9.89844 164.15 9.89844C164.475 9.89844 164.768 9.83594 165.029 9.71094C165.295 9.58203 165.525 9.39258 165.721 9.14258L166.5 9.95117C166.367 10.1465 166.188 10.334 165.961 10.5137C165.738 10.6934 165.469 10.8398 165.152 10.9531C164.836 11.0625 164.471 11.1172 164.057 11.1172Z" fill="#FFAE00"/>
<path d="M256.912 9.36523L258.611 2.46875H259.531L259.59 3.92188L257.773 11H256.801L256.912 9.36523ZM255.84 2.46875L257.234 9.3418V11H256.174L254.24 2.46875H255.84ZM261.354 9.3125L262.725 2.46875H264.33L262.396 11H261.336L261.354 9.3125ZM259.971 2.46875L261.67 9.38867L261.77 11H260.797L258.986 3.91602L259.057 2.46875H259.971ZM264.77 7.89453V7.77148C264.77 7.30664 264.836 6.87891 264.969 6.48828C265.102 6.09375 265.295 5.75195 265.549 5.46289C265.803 5.17383 266.113 4.94922 266.48 4.78906C266.848 4.625 267.266 4.54297 267.734 4.54297C268.211 4.54297 268.633 4.625 269 4.78906C269.371 4.94922 269.684 5.17383 269.938 5.46289C270.191 5.75195 270.385 6.09375 270.518 6.48828C270.65 6.87891 270.717 7.30664 270.717 7.77148V7.89453C270.717 8.35547 270.65 8.7832 270.518 9.17773C270.385 9.56836 270.191 9.91016 269.938 10.2031C269.684 10.4922 269.373 10.7168 269.006 10.877C268.639 11.0371 268.219 11.1172 267.746 11.1172C267.277 11.1172 266.857 11.0371 266.486 10.877C266.115 10.7168 265.803 10.4922 265.549 10.2031C265.295 9.91016 265.102 9.56836 264.969 9.17773C264.836 8.7832 264.77 8.35547 264.77 7.89453ZM266.316 7.77148V7.89453C266.316 8.17188 266.344 8.43164 266.398 8.67383C266.453 8.91602 266.537 9.12891 266.65 9.3125C266.764 9.49609 266.91 9.64062 267.09 9.74609C267.273 9.84766 267.492 9.89844 267.746 9.89844C267.996 9.89844 268.211 9.84766 268.391 9.74609C268.57 9.64062 268.717 9.49609 268.83 9.3125C268.947 9.12891 269.033 8.91602 269.088 8.67383C269.143 8.43164 269.17 8.17188 269.17 7.89453V7.77148C269.17 7.49805 269.143 7.24219 269.088 7.00391C269.033 6.76172 268.947 6.54883 268.83 6.36523C268.717 6.17773 268.568 6.03125 268.385 5.92578C268.205 5.81641 267.988 5.76172 267.734 5.76172C267.484 5.76172 267.27 5.81641 267.09 5.92578C266.91 6.03125 266.764 6.17773 266.65 6.36523C266.537 6.54883 266.453 6.76172 266.398 7.00391C266.344 7.24219 266.316 7.49805 266.316 7.77148ZM273.389 5.95508V11H271.842V4.66016H273.307L273.389 5.95508ZM275.316 4.61914L275.293 6.06055C275.207 6.04492 275.109 6.0332 275 6.02539C274.895 6.01758 274.795 6.01367 274.701 6.01367C274.463 6.01367 274.254 6.04688 274.074 6.11328C273.895 6.17578 273.744 6.26758 273.623 6.38867C273.506 6.50977 273.416 6.6582 273.354 6.83398C273.291 7.00586 273.256 7.20117 273.248 7.41992L272.914 7.37891C272.914 6.97656 272.955 6.60352 273.037 6.25977C273.119 5.91602 273.238 5.61523 273.395 5.35742C273.551 5.09961 273.746 4.90039 273.98 4.75977C274.219 4.61523 274.492 4.54297 274.801 4.54297C274.887 4.54297 274.979 4.55078 275.076 4.56641C275.178 4.57812 275.258 4.5957 275.316 4.61914ZM279.652 9.26562C279.652 9.13281 279.617 9.01367 279.547 8.9082C279.477 8.80273 279.344 8.70703 279.148 8.62109C278.957 8.53125 278.676 8.44727 278.305 8.36914C277.977 8.29883 277.674 8.21094 277.396 8.10547C277.119 8 276.881 7.87305 276.682 7.72461C276.482 7.57227 276.326 7.39453 276.213 7.19141C276.104 6.98438 276.049 6.74609 276.049 6.47656C276.049 6.21484 276.105 5.96875 276.219 5.73828C276.332 5.50391 276.496 5.29883 276.711 5.12305C276.926 4.94336 277.188 4.80273 277.496 4.70117C277.805 4.5957 278.152 4.54297 278.539 4.54297C279.078 4.54297 279.541 4.63086 279.928 4.80664C280.318 4.98242 280.617 5.22461 280.824 5.5332C281.031 5.83789 281.135 6.18164 281.135 6.56445H279.588C279.588 6.39648 279.549 6.24414 279.471 6.10742C279.396 5.9707 279.281 5.86133 279.125 5.7793C278.969 5.69336 278.771 5.65039 278.533 5.65039C278.318 5.65039 278.137 5.68555 277.988 5.75586C277.844 5.82617 277.734 5.91797 277.66 6.03125C277.586 6.14453 277.549 6.26953 277.549 6.40625C277.549 6.50781 277.568 6.59961 277.607 6.68164C277.65 6.75977 277.719 6.83203 277.812 6.89844C277.906 6.96484 278.033 7.02539 278.193 7.08008C278.357 7.13477 278.559 7.1875 278.797 7.23828C279.27 7.33203 279.682 7.45703 280.033 7.61328C280.389 7.76562 280.666 7.96875 280.865 8.22266C281.064 8.47656 281.164 8.80078 281.164 9.19531C281.164 9.47656 281.104 9.73438 280.982 9.96875C280.861 10.1992 280.686 10.4004 280.455 10.5723C280.225 10.7441 279.949 10.8789 279.629 10.9766C279.309 11.0703 278.947 11.1172 278.545 11.1172C277.963 11.1172 277.471 11.0137 277.068 10.8066C276.666 10.5957 276.361 10.3301 276.154 10.0098C275.947 9.68555 275.844 9.34961 275.844 9.00195H277.326C277.338 9.24805 277.404 9.44531 277.525 9.59375C277.646 9.74219 277.799 9.84961 277.982 9.91602C278.17 9.97852 278.367 10.0098 278.574 10.0098C278.809 10.0098 279.006 9.97852 279.166 9.91602C279.326 9.84961 279.447 9.76172 279.529 9.65234C279.611 9.53906 279.652 9.41016 279.652 9.26562ZM285.342 4.66016V5.77344H281.709V4.66016H285.342ZM282.682 3.10156H284.234V9.17188C284.234 9.35938 284.26 9.50391 284.311 9.60547C284.361 9.70703 284.438 9.77539 284.539 9.81055C284.641 9.8457 284.762 9.86328 284.902 9.86328C285.004 9.86328 285.098 9.85742 285.184 9.8457C285.27 9.83398 285.342 9.82227 285.4 9.81055L285.406 10.9707C285.277 11.0137 285.131 11.0488 284.967 11.0762C284.807 11.1035 284.625 11.1172 284.422 11.1172C284.074 11.1172 283.77 11.0586 283.508 10.9414C283.246 10.8203 283.043 10.627 282.898 10.3613C282.754 10.0918 282.682 9.73633 282.682 9.29492V3.10156Z" fill="#FD0200"/>
<defs>
<linearGradient id="paint0_linear_2546_620" x1="1" y1="25.5" x2="286" y2="25.5" gradientUnits="userSpaceOnUse">
<stop stop-color="#22BA45"/>
<stop offset="0.493112" stop-color="#DF8313"/>
<stop offset="1" stop-color="#FE0000"/>
</linearGradient>
</defs>
</svg>
