<svg width="339" height="25" viewBox="0 0 339 25" fill="none" xmlns="http://www.w3.org/2000/svg">
<rect width="56.1255" height="25" fill="#01CC01"/>
<rect x="112" width="58" height="25" fill="#FF6501"/>
<rect x="226" width="56.1255" height="25" fill="#9A35FF"/>
<path d="M233.067 15.262C233.771 14.6753 234.332 14.1877 234.75 13.799C235.168 13.403 235.516 12.9923 235.795 12.567C236.074 12.1417 236.213 11.7237 236.213 11.313C236.213 10.939 236.125 10.6457 235.949 10.433C235.773 10.2203 235.502 10.114 235.135 10.114C234.768 10.114 234.486 10.2387 234.288 10.488C234.09 10.73 233.987 11.0637 233.98 11.489H232.484C232.513 10.609 232.774 9.94167 233.265 9.487C233.764 9.03233 234.394 8.805 235.157 8.805C235.993 8.805 236.635 9.02867 237.082 9.476C237.529 9.916 237.753 10.499 237.753 11.225C237.753 11.797 237.599 12.3433 237.291 12.864C236.983 13.3847 236.631 13.8393 236.235 14.228C235.839 14.6093 235.322 15.0713 234.684 15.614H237.929V16.89H232.495V15.746L233.067 15.262ZM238.899 12.886C238.899 11.6173 239.127 10.6237 239.581 9.905C240.043 9.18633 240.806 8.827 241.869 8.827C242.933 8.827 243.692 9.18633 244.146 9.905C244.608 10.6237 244.839 11.6173 244.839 12.886C244.839 14.162 244.608 15.163 244.146 15.889C243.692 16.615 242.933 16.978 241.869 16.978C240.806 16.978 240.043 16.615 239.581 15.889C239.127 15.163 238.899 14.162 238.899 12.886ZM243.321 12.886C243.321 12.3433 243.285 11.8887 243.211 11.522C243.145 11.148 243.006 10.8437 242.793 10.609C242.588 10.3743 242.28 10.257 241.869 10.257C241.459 10.257 241.147 10.3743 240.934 10.609C240.729 10.8437 240.59 11.148 240.516 11.522C240.45 11.8887 240.417 12.3433 240.417 12.886C240.417 13.4433 240.45 13.9127 240.516 14.294C240.582 14.668 240.722 14.9723 240.934 15.207C241.147 15.4343 241.459 15.548 241.869 15.548C242.28 15.548 242.592 15.4343 242.804 15.207C243.017 14.9723 243.156 14.668 243.222 14.294C243.288 13.9127 243.321 13.4433 243.321 12.886ZM245.824 10.4V8.981H248.475V17H246.891V10.4H245.824ZM254.858 12.424V13.722H250.194V12.424H254.858ZM256.431 11.093C256.468 10.3597 256.725 9.795 257.201 9.399C257.685 8.99567 258.32 8.794 259.104 8.794C259.64 8.794 260.098 8.88933 260.479 9.08C260.861 9.26333 261.147 9.51633 261.337 9.839C261.535 10.1543 261.634 10.5137 261.634 10.917C261.634 11.379 261.513 11.7713 261.271 12.094C261.037 12.4093 260.754 12.622 260.424 12.732V12.776C260.85 12.908 261.18 13.1427 261.414 13.48C261.656 13.8173 261.777 14.25 261.777 14.778C261.777 15.218 261.675 15.6103 261.469 15.955C261.271 16.2997 260.974 16.571 260.578 16.769C260.19 16.9597 259.72 17.055 259.17 17.055C258.342 17.055 257.667 16.846 257.146 16.428C256.626 16.01 256.351 15.394 256.321 14.58H257.817C257.832 14.9393 257.953 15.229 258.18 15.449C258.415 15.6617 258.734 15.768 259.137 15.768C259.511 15.768 259.797 15.6653 259.995 15.46C260.201 15.2473 260.303 14.976 260.303 14.646C260.303 14.206 260.164 13.8907 259.885 13.7C259.607 13.5093 259.174 13.414 258.587 13.414H258.268V12.149H258.587C259.629 12.149 260.149 11.8007 260.149 11.104C260.149 10.7887 260.054 10.543 259.863 10.367C259.68 10.191 259.412 10.103 259.06 10.103C258.716 10.103 258.448 10.1983 258.257 10.389C258.074 10.5723 257.968 10.807 257.938 11.093H256.431ZM262.994 12.886C262.994 11.6173 263.221 10.6237 263.676 9.905C264.138 9.18633 264.901 8.827 265.964 8.827C267.027 8.827 267.786 9.18633 268.241 9.905C268.703 10.6237 268.934 11.6173 268.934 12.886C268.934 14.162 268.703 15.163 268.241 15.889C267.786 16.615 267.027 16.978 265.964 16.978C264.901 16.978 264.138 16.615 263.676 15.889C263.221 15.163 262.994 14.162 262.994 12.886ZM267.416 12.886C267.416 12.3433 267.379 11.8887 267.306 11.522C267.24 11.148 267.101 10.8437 266.888 10.609C266.683 10.3743 266.375 10.257 265.964 10.257C265.553 10.257 265.242 10.3743 265.029 10.609C264.824 10.8437 264.684 11.148 264.611 11.522C264.545 11.8887 264.512 12.3433 264.512 12.886C264.512 13.4433 264.545 13.9127 264.611 14.294C264.677 14.668 264.816 14.9723 265.029 15.207C265.242 15.4343 265.553 15.548 265.964 15.548C266.375 15.548 266.686 15.4343 266.899 15.207C267.112 14.9723 267.251 14.668 267.317 14.294C267.383 13.9127 267.416 13.4433 267.416 12.886ZM270.105 12.886C270.105 11.6173 270.333 10.6237 270.787 9.905C271.249 9.18633 272.012 8.827 273.075 8.827C274.139 8.827 274.898 9.18633 275.352 9.905C275.814 10.6237 276.045 11.6173 276.045 12.886C276.045 14.162 275.814 15.163 275.352 15.889C274.898 16.615 274.139 16.978 273.075 16.978C272.012 16.978 271.249 16.615 270.787 15.889C270.333 15.163 270.105 14.162 270.105 12.886ZM274.527 12.886C274.527 12.3433 274.491 11.8887 274.417 11.522C274.351 11.148 274.212 10.8437 273.999 10.609C273.794 10.3743 273.486 10.257 273.075 10.257C272.665 10.257 272.353 10.3743 272.14 10.609C271.935 10.8437 271.796 11.148 271.722 11.522C271.656 11.8887 271.623 12.3433 271.623 12.886C271.623 13.4433 271.656 13.9127 271.722 14.294C271.788 14.668 271.928 14.9723 272.14 15.207C272.353 15.4343 272.665 15.548 273.075 15.548C273.486 15.548 273.798 15.4343 274.01 15.207C274.223 14.9723 274.362 14.668 274.428 14.294C274.494 13.9127 274.527 13.4433 274.527 12.886Z" fill="white"/>
<rect x="56" width="56.1255" height="25" fill="#FFC000"/>
<rect x="169" width="57.3727" height="25" fill="#FE0000"/>
<rect x="282" width="56.1255" height="25" fill="#930537"/>
<path d="M295.605 11.093C295.642 10.3597 295.898 9.795 296.375 9.399C296.859 8.99567 297.493 8.794 298.278 8.794C298.813 8.794 299.272 8.88933 299.653 9.08C300.034 9.26333 300.32 9.51633 300.511 9.839C300.709 10.1543 300.808 10.5137 300.808 10.917C300.808 11.379 300.687 11.7713 300.445 12.094C300.21 12.4093 299.928 12.622 299.598 12.732V12.776C300.023 12.908 300.353 13.1427 300.588 13.48C300.83 13.8173 300.951 14.25 300.951 14.778C300.951 15.218 300.848 15.6103 300.643 15.955C300.445 16.2997 300.148 16.571 299.752 16.769C299.363 16.9597 298.894 17.055 298.344 17.055C297.515 17.055 296.841 16.846 296.32 16.428C295.799 16.01 295.524 15.394 295.495 14.58H296.991C297.006 14.9393 297.127 15.229 297.354 15.449C297.589 15.6617 297.908 15.768 298.311 15.768C298.685 15.768 298.971 15.6653 299.169 15.46C299.374 15.2473 299.477 14.976 299.477 14.646C299.477 14.206 299.338 13.8907 299.059 13.7C298.78 13.5093 298.348 13.414 297.761 13.414H297.442V12.149H297.761C298.802 12.149 299.323 11.8007 299.323 11.104C299.323 10.7887 299.228 10.543 299.037 10.367C298.854 10.191 298.586 10.103 298.234 10.103C297.889 10.103 297.622 10.1983 297.431 10.389C297.248 10.5723 297.141 10.807 297.112 11.093H295.605ZM302.168 12.886C302.168 11.6173 302.395 10.6237 302.85 9.905C303.312 9.18633 304.075 8.827 305.138 8.827C306.201 8.827 306.96 9.18633 307.415 9.905C307.877 10.6237 308.108 11.6173 308.108 12.886C308.108 14.162 307.877 15.163 307.415 15.889C306.96 16.615 306.201 16.978 305.138 16.978C304.075 16.978 303.312 16.615 302.85 15.889C302.395 15.163 302.168 14.162 302.168 12.886ZM306.59 12.886C306.59 12.3433 306.553 11.8887 306.48 11.522C306.414 11.148 306.275 10.8437 306.062 10.609C305.857 10.3743 305.549 10.257 305.138 10.257C304.727 10.257 304.416 10.3743 304.203 10.609C303.998 10.8437 303.858 11.148 303.785 11.522C303.719 11.8887 303.686 12.3433 303.686 12.886C303.686 13.4433 303.719 13.9127 303.785 14.294C303.851 14.668 303.99 14.9723 304.203 15.207C304.416 15.4343 304.727 15.548 305.138 15.548C305.549 15.548 305.86 15.4343 306.073 15.207C306.286 14.9723 306.425 14.668 306.491 14.294C306.557 13.9127 306.59 13.4433 306.59 12.886ZM309.279 12.886C309.279 11.6173 309.507 10.6237 309.961 9.905C310.423 9.18633 311.186 8.827 312.249 8.827C313.313 8.827 314.072 9.18633 314.526 9.905C314.988 10.6237 315.219 11.6173 315.219 12.886C315.219 14.162 314.988 15.163 314.526 15.889C314.072 16.615 313.313 16.978 312.249 16.978C311.186 16.978 310.423 16.615 309.961 15.889C309.507 15.163 309.279 14.162 309.279 12.886ZM313.701 12.886C313.701 12.3433 313.665 11.8887 313.591 11.522C313.525 11.148 313.386 10.8437 313.173 10.609C312.968 10.3743 312.66 10.257 312.249 10.257C311.839 10.257 311.527 10.3743 311.314 10.609C311.109 10.8437 310.97 11.148 310.896 11.522C310.83 11.8887 310.797 12.3433 310.797 12.886C310.797 13.4433 310.83 13.9127 310.896 14.294C310.962 14.668 311.102 14.9723 311.314 15.207C311.527 15.4343 311.839 15.548 312.249 15.548C312.66 15.548 312.972 15.4343 313.184 15.207C313.397 14.9723 313.536 14.668 313.602 14.294C313.668 13.9127 313.701 13.4433 313.701 12.886ZM322.32 13.755H320.241V15.889H318.789V13.755H316.71V12.413H318.789V10.279H320.241V12.413H322.32V13.755Z" fill="white"/>
<path d="M176.396 10.4V8.981H179.047V17H177.463V10.4H176.396ZM185.958 10.312H182.394V12.193C182.548 12.0023 182.768 11.8483 183.054 11.731C183.34 11.6063 183.645 11.544 183.967 11.544C184.554 11.544 185.034 11.6723 185.408 11.929C185.782 12.1857 186.054 12.5157 186.222 12.919C186.391 13.315 186.475 13.7403 186.475 14.195C186.475 15.0383 186.233 15.7167 185.749 16.23C185.273 16.7433 184.591 17 183.703 17C182.867 17 182.2 16.791 181.701 16.373C181.203 15.955 180.92 15.4087 180.854 14.734H182.35C182.416 15.0273 182.563 15.262 182.79 15.438C183.025 15.614 183.322 15.702 183.681 15.702C184.114 15.702 184.44 15.5663 184.66 15.295C184.88 15.0237 184.99 14.6643 184.99 14.217C184.99 13.7623 184.877 13.4177 184.649 13.183C184.429 12.941 184.103 12.82 183.67 12.82C183.362 12.82 183.106 12.897 182.9 13.051C182.695 13.205 182.548 13.4103 182.46 13.667H180.986V8.959H185.958V10.312ZM187.46 10.4V8.981H190.111V17H188.527V10.4H187.46ZM196.495 12.424V13.722H191.831V12.424H196.495ZM198.53 15.262C199.234 14.6753 199.795 14.1877 200.213 13.799C200.631 13.403 200.979 12.9923 201.258 12.567C201.537 12.1417 201.676 11.7237 201.676 11.313C201.676 10.939 201.588 10.6457 201.412 10.433C201.236 10.2203 200.965 10.114 200.598 10.114C200.231 10.114 199.949 10.2387 199.751 10.488C199.553 10.73 199.45 11.0637 199.443 11.489H197.947C197.976 10.609 198.237 9.94167 198.728 9.487C199.227 9.03233 199.857 8.805 200.62 8.805C201.456 8.805 202.098 9.02867 202.545 9.476C202.992 9.916 203.216 10.499 203.216 11.225C203.216 11.797 203.062 12.3433 202.754 12.864C202.446 13.3847 202.094 13.8393 201.698 14.228C201.302 14.6093 200.785 15.0713 200.147 15.614H203.392V16.89H197.958V15.746L198.53 15.262ZM204.362 12.886C204.362 11.6173 204.59 10.6237 205.044 9.905C205.506 9.18633 206.269 8.827 207.332 8.827C208.396 8.827 209.155 9.18633 209.609 9.905C210.071 10.6237 210.302 11.6173 210.302 12.886C210.302 14.162 210.071 15.163 209.609 15.889C209.155 16.615 208.396 16.978 207.332 16.978C206.269 16.978 205.506 16.615 205.044 15.889C204.59 15.163 204.362 14.162 204.362 12.886ZM208.784 12.886C208.784 12.3433 208.748 11.8887 208.674 11.522C208.608 11.148 208.469 10.8437 208.256 10.609C208.051 10.3743 207.743 10.257 207.332 10.257C206.922 10.257 206.61 10.3743 206.397 10.609C206.192 10.8437 206.053 11.148 205.979 11.522C205.913 11.8887 205.88 12.3433 205.88 12.886C205.88 13.4433 205.913 13.9127 205.979 14.294C206.045 14.668 206.185 14.9723 206.397 15.207C206.61 15.4343 206.922 15.548 207.332 15.548C207.743 15.548 208.055 15.4343 208.267 15.207C208.48 14.9723 208.619 14.668 208.685 14.294C208.751 13.9127 208.784 13.4433 208.784 12.886ZM211.474 12.886C211.474 11.6173 211.701 10.6237 212.156 9.905C212.618 9.18633 213.38 8.827 214.444 8.827C215.507 8.827 216.266 9.18633 216.721 9.905C217.183 10.6237 217.414 11.6173 217.414 12.886C217.414 14.162 217.183 15.163 216.721 15.889C216.266 16.615 215.507 16.978 214.444 16.978C213.38 16.978 212.618 16.615 212.156 15.889C211.701 15.163 211.474 14.162 211.474 12.886ZM215.896 12.886C215.896 12.3433 215.859 11.8887 215.786 11.522C215.72 11.148 215.58 10.8437 215.368 10.609C215.162 10.3743 214.854 10.257 214.444 10.257C214.033 10.257 213.721 10.3743 213.509 10.609C213.303 10.8437 213.164 11.148 213.091 11.522C213.025 11.8887 212.992 12.3433 212.992 12.886C212.992 13.4433 213.025 13.9127 213.091 14.294C213.157 14.668 213.296 14.9723 213.509 15.207C213.721 15.4343 214.033 15.548 214.444 15.548C214.854 15.548 215.166 15.4343 215.379 15.207C215.591 14.9723 215.731 14.668 215.797 14.294C215.863 13.9127 215.896 13.4433 215.896 12.886Z" fill="white"/>
<path d="M71.973 10.312H68.409V12.193C68.563 12.0023 68.783 11.8483 69.069 11.731C69.355 11.6063 69.6593 11.544 69.982 11.544C70.5687 11.544 71.049 11.6723 71.423 11.929C71.797 12.1857 72.0683 12.5157 72.237 12.919C72.4057 13.315 72.49 13.7403 72.49 14.195C72.49 15.0383 72.248 15.7167 71.764 16.23C71.2873 16.7433 70.6053 17 69.718 17C68.882 17 68.2147 16.791 67.716 16.373C67.2173 15.955 66.935 15.4087 66.869 14.734H68.365C68.431 15.0273 68.5777 15.262 68.805 15.438C69.0397 15.614 69.3367 15.702 69.696 15.702C70.1287 15.702 70.455 15.5663 70.675 15.295C70.895 15.0237 71.005 14.6643 71.005 14.217C71.005 13.7623 70.8913 13.4177 70.664 13.183C70.444 12.941 70.1177 12.82 69.685 12.82C69.377 12.82 69.1203 12.897 68.915 13.051C68.7097 13.205 68.563 13.4103 68.475 13.667H67.001V8.959H71.973V10.312ZM73.4751 10.4V8.981H76.1261V17H74.5421V10.4H73.4751ZM82.5095 12.424V13.722H77.8455V12.424H82.5095ZM83.8735 10.4V8.981H86.5245V17H84.9405V10.4H83.8735ZM88.0459 12.886C88.0459 11.6173 88.2732 10.6237 88.7279 9.905C89.1899 9.18633 89.9526 8.827 91.0159 8.827C92.0792 8.827 92.8382 9.18633 93.2929 9.905C93.7549 10.6237 93.9859 11.6173 93.9859 12.886C93.9859 14.162 93.7549 15.163 93.2929 15.889C92.8382 16.615 92.0792 16.978 91.0159 16.978C89.9526 16.978 89.1899 16.615 88.7279 15.889C88.2732 15.163 88.0459 14.162 88.0459 12.886ZM92.4679 12.886C92.4679 12.3433 92.4312 11.8887 92.3579 11.522C92.2919 11.148 92.1526 10.8437 91.9399 10.609C91.7346 10.3743 91.4266 10.257 91.0159 10.257C90.6052 10.257 90.2936 10.3743 90.0809 10.609C89.8756 10.8437 89.7362 11.148 89.6629 11.522C89.5969 11.8887 89.5639 12.3433 89.5639 12.886C89.5639 13.4433 89.5969 13.9127 89.6629 14.294C89.7289 14.668 89.8682 14.9723 90.0809 15.207C90.2936 15.4343 90.6052 15.548 91.0159 15.548C91.4266 15.548 91.7382 15.4343 91.9509 15.207C92.1636 14.9723 92.3029 14.668 92.3689 14.294C92.4349 13.9127 92.4679 13.4433 92.4679 12.886ZM95.1572 12.886C95.1572 11.6173 95.3846 10.6237 95.8392 9.905C96.3012 9.18633 97.0639 8.827 98.1272 8.827C99.1906 8.827 99.9496 9.18633 100.404 9.905C100.866 10.6237 101.097 11.6173 101.097 12.886C101.097 14.162 100.866 15.163 100.404 15.889C99.9496 16.615 99.1906 16.978 98.1272 16.978C97.0639 16.978 96.3012 16.615 95.8392 15.889C95.3846 15.163 95.1572 14.162 95.1572 12.886ZM99.5792 12.886C99.5792 12.3433 99.5426 11.8887 99.4692 11.522C99.4032 11.148 99.2639 10.8437 99.0512 10.609C98.8459 10.3743 98.5379 10.257 98.1272 10.257C97.7166 10.257 97.4049 10.3743 97.1922 10.609C96.9869 10.8437 96.8476 11.148 96.7742 11.522C96.7082 11.8887 96.6752 12.3433 96.6752 12.886C96.6752 13.4433 96.7082 13.9127 96.7742 14.294C96.8402 14.668 96.9796 14.9723 97.1922 15.207C97.4049 15.4343 97.7166 15.548 98.1272 15.548C98.5379 15.548 98.8496 15.4343 99.0622 15.207C99.2749 14.9723 99.4142 14.668 99.4802 14.294C99.5462 13.9127 99.5792 13.4433 99.5792 12.886Z" fill="white"/>
<path d="M120.396 10.4V8.981H123.047V17H121.463V10.4H120.396ZM124.568 12.886C124.568 11.6173 124.796 10.6237 125.25 9.905C125.712 9.18633 126.475 8.827 127.538 8.827C128.602 8.827 129.361 9.18633 129.815 9.905C130.277 10.6237 130.508 11.6173 130.508 12.886C130.508 14.162 130.277 15.163 129.815 15.889C129.361 16.615 128.602 16.978 127.538 16.978C126.475 16.978 125.712 16.615 125.25 15.889C124.796 15.163 124.568 14.162 124.568 12.886ZM128.99 12.886C128.99 12.3433 128.954 11.8887 128.88 11.522C128.814 11.148 128.675 10.8437 128.462 10.609C128.257 10.3743 127.949 10.257 127.538 10.257C127.128 10.257 126.816 10.3743 126.603 10.609C126.398 10.8437 126.259 11.148 126.185 11.522C126.119 11.8887 126.086 12.3433 126.086 12.886C126.086 13.4433 126.119 13.9127 126.185 14.294C126.251 14.668 126.391 14.9723 126.603 15.207C126.816 15.4343 127.128 15.548 127.538 15.548C127.949 15.548 128.261 15.4343 128.473 15.207C128.686 14.9723 128.825 14.668 128.891 14.294C128.957 13.9127 128.99 13.4433 128.99 12.886ZM131.493 10.4V8.981H134.144V17H132.56V10.4H131.493ZM140.527 12.424V13.722H135.863V12.424H140.527ZM141.891 10.4V8.981H144.542V17H142.958V10.4H141.891ZM151.453 10.312H147.889V12.193C148.043 12.0023 148.263 11.8483 148.549 11.731C148.835 11.6063 149.14 11.544 149.462 11.544C150.049 11.544 150.529 11.6723 150.903 11.929C151.277 12.1857 151.549 12.5157 151.717 12.919C151.886 13.315 151.97 13.7403 151.97 14.195C151.97 15.0383 151.728 15.7167 151.244 16.23C150.768 16.7433 150.086 17 149.198 17C148.362 17 147.695 16.791 147.196 16.373C146.698 15.955 146.415 15.4087 146.349 14.734H147.845C147.911 15.0273 148.058 15.262 148.285 15.438C148.52 15.614 148.817 15.702 149.176 15.702C149.609 15.702 149.935 15.5663 150.155 15.295C150.375 15.0237 150.485 14.6643 150.485 14.217C150.485 13.7623 150.372 13.4177 150.144 13.183C149.924 12.941 149.598 12.82 149.165 12.82C148.857 12.82 148.601 12.897 148.395 13.051C148.19 13.205 148.043 13.4103 147.955 13.667H146.481V8.959H151.453V10.312ZM153.143 12.886C153.143 11.6173 153.37 10.6237 153.825 9.905C154.287 9.18633 155.049 8.827 156.113 8.827C157.176 8.827 157.935 9.18633 158.39 9.905C158.852 10.6237 159.083 11.6173 159.083 12.886C159.083 14.162 158.852 15.163 158.39 15.889C157.935 16.615 157.176 16.978 156.113 16.978C155.049 16.978 154.287 16.615 153.825 15.889C153.37 15.163 153.143 14.162 153.143 12.886ZM157.565 12.886C157.565 12.3433 157.528 11.8887 157.455 11.522C157.389 11.148 157.249 10.8437 157.037 10.609C156.831 10.3743 156.523 10.257 156.113 10.257C155.702 10.257 155.39 10.3743 155.178 10.609C154.972 10.8437 154.833 11.148 154.76 11.522C154.694 11.8887 154.661 12.3433 154.661 12.886C154.661 13.4433 154.694 13.9127 154.76 14.294C154.826 14.668 154.965 14.9723 155.178 15.207C155.39 15.4343 155.702 15.548 156.113 15.548C156.523 15.548 156.835 15.4343 157.048 15.207C157.26 14.9723 157.4 14.668 157.466 14.294C157.532 13.9127 157.565 13.4433 157.565 12.886Z" fill="white"/>
<path d="M14.583 12.886C14.583 11.6173 14.8103 10.6237 15.265 9.905C15.727 9.18633 16.4897 8.827 17.553 8.827C18.6163 8.827 19.3753 9.18633 19.83 9.905C20.292 10.6237 20.523 11.6173 20.523 12.886C20.523 14.162 20.292 15.163 19.83 15.889C19.3753 16.615 18.6163 16.978 17.553 16.978C16.4897 16.978 15.727 16.615 15.265 15.889C14.8103 15.163 14.583 14.162 14.583 12.886ZM19.005 12.886C19.005 12.3433 18.9683 11.8887 18.895 11.522C18.829 11.148 18.6897 10.8437 18.477 10.609C18.2717 10.3743 17.9637 10.257 17.553 10.257C17.1423 10.257 16.8307 10.3743 16.618 10.609C16.4127 10.8437 16.2733 11.148 16.2 11.522C16.134 11.8887 16.101 12.3433 16.101 12.886C16.101 13.4433 16.134 13.9127 16.2 14.294C16.266 14.668 16.4053 14.9723 16.618 15.207C16.8307 15.4343 17.1423 15.548 17.553 15.548C17.9637 15.548 18.2753 15.4343 18.488 15.207C18.7007 14.9723 18.84 14.668 18.906 14.294C18.972 13.9127 19.005 13.4433 19.005 12.886ZM26.5563 12.424V13.722H21.8923V12.424H26.5563ZM33.4974 10.312H29.9334V12.193C30.0874 12.0023 30.3074 11.8483 30.5934 11.731C30.8794 11.6063 31.1837 11.544 31.5064 11.544C32.0931 11.544 32.5734 11.6723 32.9474 11.929C33.3214 12.1857 33.5927 12.5157 33.7614 12.919C33.9301 13.315 34.0144 13.7403 34.0144 14.195C34.0144 15.0383 33.7724 15.7167 33.2884 16.23C32.8117 16.7433 32.1297 17 31.2424 17C30.4064 17 29.7391 16.791 29.2404 16.373C28.7417 15.955 28.4594 15.4087 28.3934 14.734H29.8894C29.9554 15.0273 30.1021 15.262 30.3294 15.438C30.5641 15.614 30.8611 15.702 31.2204 15.702C31.6531 15.702 31.9794 15.5663 32.1994 15.295C32.4194 15.0237 32.5294 14.6643 32.5294 14.217C32.5294 13.7623 32.4157 13.4177 32.1884 13.183C31.9684 12.941 31.6421 12.82 31.2094 12.82C30.9014 12.82 30.6447 12.897 30.4394 13.051C30.2341 13.205 30.0874 13.4103 29.9994 13.667H28.5254V8.959H33.4974V10.312ZM35.1865 12.886C35.1865 11.6173 35.4138 10.6237 35.8685 9.905C36.3305 9.18633 37.0932 8.827 38.1565 8.827C39.2198 8.827 39.9788 9.18633 40.4335 9.905C40.8955 10.6237 41.1265 11.6173 41.1265 12.886C41.1265 14.162 40.8955 15.163 40.4335 15.889C39.9788 16.615 39.2198 16.978 38.1565 16.978C37.0932 16.978 36.3305 16.615 35.8685 15.889C35.4138 15.163 35.1865 14.162 35.1865 12.886ZM39.6085 12.886C39.6085 12.3433 39.5718 11.8887 39.4985 11.522C39.4325 11.148 39.2932 10.8437 39.0805 10.609C38.8752 10.3743 38.5672 10.257 38.1565 10.257C37.7458 10.257 37.4342 10.3743 37.2215 10.609C37.0162 10.8437 36.8768 11.148 36.8035 11.522C36.7375 11.8887 36.7045 12.3433 36.7045 12.886C36.7045 13.4433 36.7375 13.9127 36.8035 14.294C36.8695 14.668 37.0088 14.9723 37.2215 15.207C37.4342 15.4343 37.7458 15.548 38.1565 15.548C38.5672 15.548 38.8788 15.4343 39.0915 15.207C39.3042 14.9723 39.4435 14.668 39.5095 14.294C39.5755 13.9127 39.6085 13.4433 39.6085 12.886Z" fill="white"/>
</svg>
